<?xml version="1.0" encoding="utf-8"?>
<!-- Generator: Adobe Illustrator 22.1.0, SVG Export Plug-In . SVG Version: 6.00 Build 0)  -->
<svg version="1.1" id="Layer_1" xmlns="http://www.w3.org/2000/svg" xmlns:xlink="http://www.w3.org/1999/xlink" x="0px" y="0px"
	 viewBox="0 0 2500 741" style="enable-background:new 0 0 2500 741;" xml:space="preserve">
<style type="text/css">
	.st0{fill:#A6A6A6;}
	.st1{fill:#FFFFFF;}
	.st2{fill:url(#SVGID_1_);}
	.st3{fill:url(#SVGID_2_);}
	.st4{fill:url(#SVGID_3_);}
	.st5{fill:url(#SVGID_4_);}
	.st6{opacity:0.2;enable-background:new    ;}
	.st7{opacity:0.12;enable-background:new    ;}
	.st8{opacity:0.25;fill:#FFFFFF;enable-background:new    ;}
</style>
<path d="M2407.4,740.9H92.6C40.7,740.9,0,700.1,0,648.3V92.7C0,40.9,40.7,0.1,92.6,0.1h2314.8c51.9,0,92.6,40.7,92.6,92.6v555.6
	C2500,700.1,2459.3,740.9,2407.4,740.9z"/>
<path class="st0" d="M2407.4,14.9c42.6,0,77.8,35.2,77.8,77.8v555.6c0,42.6-35.2,77.8-77.8,77.8H92.6c-42.6,0-77.8-35.2-77.8-77.8
	V92.7c0-42.6,35.2-77.8,77.8-77.8L2407.4,14.9 M2407.4,0.1H92.6C40.7,0.1,0,42.7,0,92.7v555.6c0,51.9,40.7,92.6,92.6,92.6h2314.8
	c51.9,0,92.6-40.7,92.6-92.6V92.7C2500,42.7,2459.3,0.1,2407.4,0.1z"/>
<path class="st1" d="M1261.1,403.8c-44.4,0-79.6,33.3-79.6,79.6c0,44.4,35.2,79.6,79.6,79.6s79.6-33.3,79.6-79.6
	C1340.7,435.3,1305.6,403.8,1261.1,403.8z M1261.1,529.8c-24.1,0-44.4-20.4-44.4-48.1s20.4-48.1,44.4-48.1s44.4,18.5,44.4,48.1
	C1305.6,509.4,1285.2,529.8,1261.1,529.8z M1088.9,403.8c-44.4,0-79.6,33.3-79.6,79.6c0,44.4,35.2,79.6,79.6,79.6
	s79.6-33.3,79.6-79.6C1168.5,435.3,1133.3,403.8,1088.9,403.8z M1088.9,529.8c-24.1,0-44.4-20.4-44.4-48.1s20.4-48.1,44.4-48.1
	c24.1,0,44.4,18.5,44.4,48.1C1133.3,509.4,1113,529.8,1088.9,529.8z M883.3,427.9v33.3H963c-1.9,18.5-9.3,33.3-18.5,42.6
	c-11.1,11.1-29.6,24.1-61.1,24.1c-50,0-87-38.9-87-88.9s38.9-88.9,87-88.9c25.9,0,46.3,11.1,61.1,24.1l24.1-24.1
	c-20.4-18.5-46.3-33.3-83.3-33.3c-66.7,0-124.1,55.6-124.1,122.2s57.4,122.2,124.1,122.2c37,0,63-11.1,85.2-35.2
	c22.2-22.2,29.6-53.7,29.6-77.8c0-7.4,0-14.8-1.9-20.4L883.3,427.9L883.3,427.9z M1724.1,453.8c-7.4-18.5-25.9-50-66.7-50
	c-40.7,0-74.1,31.5-74.1,79.6c0,44.4,33.3,79.6,77.8,79.6c35.2,0,57.4-22.2,64.8-35.2l-25.9-18.5c-9.3,13-20.4,22.2-38.9,22.2
	s-29.6-7.4-38.9-24.1l105.6-44.4L1724.1,453.8L1724.1,453.8z M1616.7,479.8c0-29.6,24.1-46.3,40.7-46.3c13,0,25.9,7.4,29.6,16.7
	L1616.7,479.8L1616.7,479.8z M1529.6,555.7h35.2V324.2h-35.2V555.7z M1474.1,420.5c-9.3-9.3-24.1-18.5-42.6-18.5
	c-38.9,0-75.9,35.2-75.9,79.6s35.2,77.8,75.9,77.8c18.5,0,33.3-9.3,40.7-18.5h1.9V552c0,29.6-16.7,46.3-42.6,46.3
	c-20.4,0-35.2-14.8-38.9-27.8l-29.6,13c9.3,20.4,31.5,46.3,70.4,46.3c40.7,0,74.1-24.1,74.1-81.5V407.5h-33.3L1474.1,420.5
	L1474.1,420.5z M1433.3,529.8c-24.1,0-44.4-20.4-44.4-48.1s20.4-48.1,44.4-48.1s42.6,20.4,42.6,48.1S1457.4,529.8,1433.3,529.8z
	 M1885.2,324.2h-83.3v231.5h35.2v-87h48.1c38.9,0,75.9-27.8,75.9-72.2S1924.1,324.2,1885.2,324.2z M1887,435.3h-50v-79.6h50
	c25.9,0,40.7,22.2,40.7,38.9C1925.9,414.9,1911.1,435.3,1887,435.3L1887,435.3z M2100,402c-25.9,0-51.9,11.1-61.1,35.2l31.5,13
	c7.4-13,18.5-16.7,31.5-16.7c18.5,0,35.2,11.1,37,29.6v1.9c-5.6-3.7-20.4-9.3-35.2-9.3c-33.3,0-66.7,18.5-66.7,51.9
	c0,31.5,27.8,51.9,57.4,51.9c24.1,0,35.2-11.1,44.4-22.2h1.9v18.5h33.3v-88.9C2170.4,426.1,2138.9,402,2100,402L2100,402z
	 M2096.3,529.8c-11.1,0-27.8-5.6-27.8-20.4c0-18.5,20.4-24.1,37-24.1c14.8,0,22.2,3.7,31.5,7.4
	C2133.3,514.9,2114.8,529.8,2096.3,529.8z M2290.7,407.5l-38.9,100h-1.9l-40.7-100h-37l61.1,140.7l-35.2,77.8h35.2l94.4-218.5
	H2290.7L2290.7,407.5z M1979.6,555.7h35.2V324.2h-35.2V555.7z"/>
<g>
	
		<linearGradient id="SVGID_1_" gradientUnits="userSpaceOnUse" x1="1807.8456" y1="30.5922" x2="1791.0626" y2="13.8104" gradientTransform="matrix(18.5185 0 0 -18.5185 -33074.9453 727.8931)">
		<stop  offset="0" style="stop-color:#00A0FF"/>
		<stop  offset="7.000001e-03" style="stop-color:#00A1FF"/>
		<stop  offset="0.26" style="stop-color:#00BEFF"/>
		<stop  offset="0.512" style="stop-color:#00D2FF"/>
		<stop  offset="0.76" style="stop-color:#00DFFF"/>
		<stop  offset="1" style="stop-color:#00E3FF"/>
	</linearGradient>
	<path class="st2" d="M192.6,139c-5.6,5.6-7.4,14.8-7.4,25.9v409.3c0,11.1,3.7,20.4,9.3,25.9l1.9,1.9L426,372.4v-3.7L192.6,139z"/>
	
		<linearGradient id="SVGID_2_" gradientUnits="userSpaceOnUse" x1="1819.882" y1="19.2506" x2="1795.6849" y2="19.2506" gradientTransform="matrix(18.5185 0 0 -18.5185 -33074.9453 727.8931)">
		<stop  offset="0" style="stop-color:#FFE000"/>
		<stop  offset="0.409" style="stop-color:#FFBD00"/>
		<stop  offset="0.775" style="stop-color:#FFA500"/>
		<stop  offset="1" style="stop-color:#FF9C00"/>
	</linearGradient>
	<path class="st3" d="M500,450.1l-75.9-75.9v-5.6l75.9-75.9l1.9,1.9l90.7,51.9c25.9,14.8,25.9,38.9,0,53.7L500,450.1z"/>
	
		<linearGradient id="SVGID_3_" gradientUnits="userSpaceOnUse" x1="1810.8656" y1="17.0134" x2="1788.1075" y2="-5.7446" gradientTransform="matrix(18.5185 0 0 -18.5185 -33074.9453 727.8931)">
		<stop  offset="0" style="stop-color:#FF3A44"/>
		<stop  offset="1" style="stop-color:#C31162"/>
	</linearGradient>
	<path class="st4" d="M501.9,448.3l-77.8-77.8L192.6,602c9.3,9.3,22.2,9.3,38.9,1.9L501.9,448.3"/>
	
		<linearGradient id="SVGID_4_" gradientUnits="userSpaceOnUse" x1="1793.3102" y1="39.0892" x2="1803.4731" y2="28.9262" gradientTransform="matrix(18.5185 0 0 -18.5185 -33074.9453 727.8931)">
		<stop  offset="0" style="stop-color:#32A071"/>
		<stop  offset="6.900000e-02" style="stop-color:#2DA771"/>
		<stop  offset="0.476" style="stop-color:#15CF74"/>
		<stop  offset="0.801" style="stop-color:#06E775"/>
		<stop  offset="1" style="stop-color:#00F076"/>
	</linearGradient>
	<path class="st5" d="M501.9,292.7L231.5,139c-16.7-9.3-29.6-7.4-38.9,1.9l231.5,229.6L501.9,292.7L501.9,292.7z"/>
	<path class="st6" d="M500,446.4L231.5,598.3c-14.8,9.3-27.8,7.4-37,0l-1.9,1.9l1.9,1.9c9.3,7.4,22.2,9.3,37,0L500,446.4z"/>
	<path class="st7" d="M192.6,598.3c-5.6-5.6-7.4-14.8-7.4-25.9v1.9c0,11.1,3.7,20.4,9.3,25.9v-1.9H192.6L192.6,598.3z M592.6,394.6
		L500,446.4l1.9,1.9l90.7-51.9c13-7.4,18.5-16.7,18.5-25.9C611.1,379.8,603.7,387.2,592.6,394.6z"/>
	<path class="st8" d="M231.5,140.9l361.1,205.6c11.1,7.4,18.5,14.8,18.5,24.1c0-9.3-5.6-18.5-18.5-25.9L231.5,139
		c-25.9-14.8-46.3-3.7-46.3,25.9v1.9C185.2,139,205.6,126.1,231.5,140.9z"/>
</g>
<g>
	<path class="st1" d="M799.1,105.4v76.1c0,6.7,0.6,12.5,1.7,17.3c1.1,4.8,3,8.7,5.5,11.8s5.7,5.3,9.7,6.7c3.9,1.4,8.6,2.1,14.2,2.1
		c5.5,0,10.2-0.7,14.1-2.1c3.9-1.4,7.1-3.7,9.6-6.8s4.3-7,5.5-11.8c1.1-4.8,1.7-10.5,1.7-17.2v-2.7h17v4.8c0,16.3-4,28.7-12.1,37
		s-20.1,12.5-35.9,12.5c-15.8,0-27.7-4.2-35.8-12.6c-8.1-8.4-12.1-20.7-12.1-36.9v-63.5h-21v-14.8L799.1,105.4L799.1,105.4z"/>
	<path class="st1" d="M901.1,193.6v-93.5h15.4v36.6h64.1v13.4h-64.1V193c0,8.9,1.7,15.6,5.2,20.1c3.4,4.4,8.6,6.6,15.6,6.6
		c8.5,0,15.1-2.7,19.8-8c4.8-5.5,7.2-12.7,7.2-21.7v-19.7h15.4v60.4h-15.4v-14.4c-3.8,5.8-8.1,10-13,12.8
		c-4.9,2.7-10.7,4.1-17.3,4.1c-10.8,0-19-3.4-24.6-10.1C903.9,216.4,901.1,206.6,901.1,193.6z"/>
	<path class="st1" d="M1089.8,174v56.8h-15.4v-56.2c0-17.7-6.9-26.6-20.8-26.6c-4.2,0-8,0.7-11.3,2.1c-3.3,1.4-6.2,3.4-8.5,6
		s-4.1,5.7-5.3,9.4c-1.2,3.7-1.8,7.8-1.8,12.3v88.9H1011v-130h15.5v14.6c3.7-5.8,8-10,13-12.8c5-2.7,10.8-4.1,17.4-4.1
		c10.9,0,19.1,3.3,24.6,9.9C1087,150.9,1089.8,160.8,1089.8,174z"/>
	<path class="st1" d="M1183.3,192.9v-18.5c0-17.7-6.9-26.6-20.8-26.6c-8.3,0-14.9,2.7-19.7,8c-4.8,5.3-7.2,12.6-7.2,21.7v39.7h63.2
		v13.4h-63.2v35.8H1120V136.7h15.5v14.6c3.7-5.7,8-9.9,13-12.7s10.8-4.2,17.4-4.2c10.9,0,19,3.3,24.6,10c5.5,6.7,8.3,16.5,8.3,29.6
		v19h-15.5V192.9z"/>
	<path class="st1" d="M1228,193.6v-93.5h15.4v36.6h64.1v13.4h-64.1V193c0,8.9,1.7,15.6,5.2,20.1c3.4,4.4,8.6,6.6,15.6,6.6
		c8.5,0,15.1-2.7,19.8-8c4.8-5.5,7.2-12.7,7.2-21.7v-19.7h15.4v60.4h-15.4v-14.4c-3.8,5.8-8.1,10-13,12.8
		c-4.9,2.7-10.7,4.1-17.3,4.1c-10.8,0-19-3.4-24.6-10.1C1230.8,216.4,1228,206.6,1228,193.6z"/>
	<path class="st1" d="M1381.5,147.8c-4.4,0-8.4,0.7-11.8,2.2c-3.5,1.5-6.4,3.4-8.8,6s-4.2,5.5-5.5,8.9s-1.9,7.1-1.9,11v54.8H1338
		v-94h15.5v14.4c3.5-5.4,7.9-9.6,13.2-12.4s11.3-4.3,18.1-4.3c5.5,0,10.6,1,15.1,2.9c4.5,2,8.4,4.7,11.7,8.2
		c3.2,3.5,5.8,7.7,7.5,12.6c1.8,4.9,2.6,10.2,2.6,16c0,4.6-0.5,8.9-1.4,12.8c-0.9,3.9-2.2,7.6-3.9,11c-1.7,3.4-3.8,6.7-6.2,9.9
		c-2.4,3.2-5.1,6.3-8.1,9.5h24.9v13.4h-43.2v-11.1c3.5-2.9,6.6-5.9,9.3-8.9c2.7-3,5-6.3,6.8-9.7s3.2-7,4.2-10.9s1.4-8,1.4-12.5
		c0-4.1-0.5-7.9-1.5-11.5s-2.5-6.8-4.4-9.5c-2-2.7-4.5-4.9-7.5-6.4C1389.1,148.6,1385.6,147.8,1381.5,147.8z"/>
	<path class="st1" d="M1430.5,100.1h33.3V193c0,17.8,6.9,26.7,20.8,26.7c4.2,0,8-0.7,11.3-2.1c3.3-1.4,6.2-3.4,8.5-6
		s4.1-5.7,5.4-9.4s1.9-7.8,1.9-12.3v-53.3h15.4v94h-15.4v-14.4c-3.8,5.8-8.1,10-13,12.8c-4.9,2.7-10.7,4.1-17.3,4.1
		c-10.9,0-19.1-3.3-24.7-10c-5.5-6.7-8.3-16.5-8.3-29.6v-80.1h-17.9L1430.5,100.1L1430.5,100.1z"/>
	<path class="st1" d="M1557.4,193.6v-93.5h15.4v36.6h64.1v13.4h-64.1V193c0,8.9,1.7,15.6,5.2,20.1c3.4,4.4,8.6,6.6,15.6,6.6
		c8.5,0,15.1-2.7,19.8-8c4.8-5.5,7.2-12.7,7.2-21.7v-19.7h15.4v60.4h-15.4v-14.4c-3.8,5.8-8.1,10-13,12.8
		c-4.9,2.7-10.7,4.1-17.3,4.1c-10.8,0-19-3.4-24.6-10.1C1560.2,216.4,1557.4,206.6,1557.4,193.6z"/>
	<path class="st1" d="M1682.9,216.6v28.9h66.2v13h-66.2v8h-15.5v-8h-12.2v-13h12.2V136.7h15.5V151c3.2-5.6,7.3-9.8,12.3-12.5
		c4.9-2.7,10.9-4.1,17.8-4.1c5.7,0,10.9,1.2,15.6,3.6c4.7,2.4,8.8,5.8,12.2,10.1c3.4,4.3,6.1,9.5,7.9,15.6c1.9,6,2.8,12.7,2.8,20.1
		c0,7.3-0.9,14-2.8,20.1c-1.9,6-4.5,11.2-7.9,15.6c-3.4,4.3-7.5,7.7-12.2,10.1s-9.9,3.6-15.6,3.6c-6.9,0-12.9-1.4-17.8-4.1
		C1690.2,226.4,1686.1,222.2,1682.9,216.6z M1735.4,183.8c0-5.6-0.6-10.6-1.8-15.2c-1.2-4.5-2.9-8.3-5.2-11.5
		c-2.3-3.1-5-5.6-8.3-7.3c-3.2-1.7-6.9-2.6-11-2.6s-7.8,0.8-11,2.5s-6,4.1-8.3,7.2c-2.3,3.1-4,7-5.2,11.5s-1.8,9.6-1.8,15.2
		c0,5.7,0.6,10.7,1.8,15.2c1.2,4.5,2.9,8.3,5.2,11.5c2.3,3.1,5,5.5,8.3,7.2c3.2,1.7,6.9,2.5,11,2.5s7.8-0.8,11-2.5
		c3.3-1.7,6-4.1,8.3-7.3c2.2-3.2,4-7,5.2-11.5C1734.8,194.5,1735.4,189.4,1735.4,183.8z"/>
</g>
</svg>
