<?xml version="1.0" encoding="utf-8"?>
<!-- Generator: Adobe Illustrator 19.2.0, SVG Export Plug-In . SVG Version: 6.00 Build 0)  -->
<svg version="1.1" id="Layer_1" xmlns="http://www.w3.org/2000/svg" xmlns:xlink="http://www.w3.org/1999/xlink" x="0px" y="0px"
	 viewBox="0 0 730.7 161.7" style="enable-background:new 0 0 730.7 161.7;" xml:space="preserve">
<style type="text/css">
	.st0{fill:#FFFFFF;}
	.st1{fill:#FDD301;}
	.st2{fill:#00B1D3;}
	.st3{fill:#E12228;}
</style>
<g>
	<g>
		<g>
			<path class="st0" d="M1,11h16.2v64.2l25-26.9H63L35.2,77.8l29.6,35.4H43.3L17.5,80h-0.3v33.1H1V11z"/>
			<path class="st0" d="M67.5,26.3c0-2.6,1-4.9,2.9-6.8c1.9-1.9,4.4-2.9,7.4-2.9c3,0,5.5,0.9,7.5,2.8c2,1.8,3,4.2,3,7
				c0,2.8-1,5.1-3,7c-2,1.8-4.5,2.8-7.5,2.8c-3,0-5.4-1-7.4-2.9C68.4,31.2,67.5,28.9,67.5,26.3z M69.8,48.3H86v64.8H69.8V48.3z"/>
			<path class="st0" d="M98.5,48.3h15.4v10.1h0.3c1.4-3.1,3.8-5.8,7-8.2c3.2-2.4,7.5-3.6,12.9-3.6c10.2,0,16.9,4,20.3,12
				c2.3-4.1,5.3-7.2,8.8-9.1c3.5-1.9,7.7-2.9,12.6-2.9c4.3,0,8,0.7,10.9,2.2c3,1.4,5.4,3.4,7.2,5.9c1.8,2.5,3.2,5.5,4,8.8
				c0.8,3.4,1.2,7,1.2,10.9v38.6h-16.2V76.4c0-2-0.2-3.9-0.5-5.7c-0.4-1.8-1-3.5-1.9-4.9c-0.9-1.4-2.1-2.5-3.6-3.3
				c-1.5-0.8-3.5-1.2-5.9-1.2c-2.5,0-4.7,0.5-6.4,1.4c-1.8,0.9-3.2,2.2-4.3,3.8c-1.1,1.6-1.9,3.4-2.4,5.4c-0.5,2-0.7,4.1-0.7,6.1
				v35.1h-16.2V74.5c0-4.1-0.9-7.3-2.6-9.7c-1.7-2.4-4.5-3.6-8.5-3.6c-2.7,0-5,0.5-6.8,1.4c-1.8,0.9-3.4,2.1-4.6,3.6
				c-1.2,1.5-2.1,3.3-2.6,5.3c-0.5,2-0.8,4.1-0.8,6.2v35.4H98.5V48.3z"/>
			<path class="st0" d="M211.3,11h16.2v45.5h0.4c0.8-1.1,1.8-2.2,3.1-3.3c1.3-1.1,2.8-2.2,4.6-3.2c1.8-1,3.9-1.8,6.2-2.4
				c2.3-0.6,5-0.9,8.1-0.9c4.6,0,8.8,0.9,12.7,2.6c3.9,1.8,7.2,4.2,9.9,7.2c2.7,3.1,4.9,6.7,6.4,10.8c1.5,4.1,2.3,8.6,2.3,13.4
				c0,4.8-0.7,9.2-2.2,13.4c-1.4,4.1-3.6,7.7-6.3,10.8c-2.8,3.1-6.2,5.5-10.1,7.2c-4,1.8-8.4,2.6-13.4,2.6c-4.6,0-8.9-0.9-12.8-2.7
				c-4-1.8-7.1-4.7-9.5-8.6h-0.3v9.7h-15.4V11z M265.1,80.7c0-2.5-0.4-5-1.3-7.3c-0.9-2.3-2.1-4.4-3.8-6.2c-1.7-1.8-3.7-3.2-6-4.3
				c-2.3-1.1-5-1.6-8-1.6c-3,0-5.6,0.5-8,1.6c-2.3,1.1-4.3,2.5-6,4.3c-1.7,1.8-2.9,3.9-3.8,6.2c-0.9,2.3-1.3,4.8-1.3,7.3
				c0,2.5,0.4,5,1.3,7.3c0.9,2.3,2.1,4.4,3.8,6.2c1.7,1.8,3.7,3.2,6,4.3c2.3,1.1,5,1.6,8,1.6c3,0,5.6-0.5,8-1.6
				c2.3-1.1,4.3-2.5,6-4.3c1.7-1.8,2.9-3.9,3.8-6.2C264.7,85.7,265.1,83.2,265.1,80.7z"/>
			<path class="st0" d="M289,26.3c0-2.6,1-4.9,2.9-6.8c1.9-1.9,4.4-2.9,7.4-2.9c3,0,5.5,0.9,7.5,2.8c2,1.8,3,4.2,3,7
				c0,2.8-1,5.1-3,7c-2,1.8-4.5,2.8-7.5,2.8c-3,0-5.4-1-7.4-2.9C290,31.2,289,28.9,289,26.3z M291.3,48.3h16.2v64.8h-16.2V48.3z"/>
		</g>
	</g>
	<rect x="359.3" class="st1" width="300.1" height="17.2"/>
	<rect x="359.3" y="24.1" class="st2" width="137.4" height="17.2"/>
	<rect x="359.3" y="48.2" class="st3" width="250.9" height="17.2"/>
	<rect x="359.3" y="72.2" class="st0" width="371.4" height="17.2"/>
	<rect x="359.3" y="96.3" class="st3" width="157.6" height="17.2"/>
	<rect x="359.3" y="120.4" class="st2" width="266.2" height="17.2"/>
	<rect x="359.3" y="144.5" class="st1" width="234.3" height="17.2"/>
</g>
</svg>
